<svg width="82" height="81" viewBox="0 0 82 81" fill="none" xmlns="http://www.w3.org/2000/svg">
<g filter="url(#filter0_d_9_181)">
<circle cx="40.7858" cy="27.5002" r="22.5" fill="white"/>
</g>
<path d="M41.3036 23.5231C38.5536 23.5231 36.3622 25.7574 36.3622 28.4645C36.3622 31.2145 38.5536 33.4059 41.3036 33.4059C44.0107 33.4059 46.2451 31.2145 46.2451 28.4645C46.2451 25.7574 44.0107 23.5231 41.3036 23.5231ZM41.3036 31.6871C39.5419 31.6871 38.081 30.2692 38.081 28.4645C38.081 26.7028 39.499 25.2848 41.3036 25.2848C43.0654 25.2848 44.4833 26.7028 44.4833 28.4645C44.4833 30.2692 43.0654 31.6871 41.3036 31.6871ZM47.5771 23.3512C47.5771 22.7067 47.0615 22.191 46.4169 22.191C45.7724 22.191 45.2568 22.7067 45.2568 23.3512C45.2568 23.9957 45.7724 24.5114 46.4169 24.5114C47.0615 24.5114 47.5771 23.9957 47.5771 23.3512ZM50.8427 24.5114C50.7568 22.9645 50.413 21.5895 49.2958 20.4723C48.1786 19.3551 46.8036 19.0114 45.2568 18.9254C43.6669 18.8395 38.8974 18.8395 37.3076 18.9254C35.7607 19.0114 34.4286 19.3551 33.2685 20.4723C32.1513 21.5895 31.8076 22.9645 31.7216 24.5114C31.6357 26.1012 31.6357 30.8707 31.7216 32.4606C31.8076 34.0074 32.1513 35.3395 33.2685 36.4996C34.4286 37.6168 35.7607 37.9606 37.3076 38.0465C38.8974 38.1324 43.6669 38.1324 45.2568 38.0465C46.8036 37.9606 48.1786 37.6168 49.2958 36.4996C50.413 35.3395 50.7568 34.0074 50.8427 32.4606C50.9286 30.8707 50.9286 26.1012 50.8427 24.5114ZM48.7802 34.1364C48.4794 34.9957 47.7919 35.6403 46.9755 35.984C45.6865 36.4996 42.6786 36.3707 41.3036 36.3707C39.8857 36.3707 36.8779 36.4996 35.6318 35.984C34.7724 35.6403 34.1279 34.9957 33.7841 34.1364C33.2685 32.8903 33.3974 29.8824 33.3974 28.4645C33.3974 27.0895 33.2685 24.0817 33.7841 22.7926C34.1279 21.9762 34.7724 21.3317 35.6318 20.9879C36.8779 20.4723 39.8857 20.6012 41.3036 20.6012C42.6786 20.6012 45.6865 20.4723 46.9755 20.9879C47.7919 21.2887 48.4365 21.9762 48.7802 22.7926C49.2958 24.0817 49.1669 27.0895 49.1669 28.4645C49.1669 29.8824 49.2958 32.8903 48.7802 34.1364Z" fill="#56D7AF"/>
<defs>
<filter id="filter0_d_9_181" x="0.285767" y="0.000244141" width="81" height="81" filterUnits="userSpaceOnUse" color-interpolation-filters="sRGB">
<feFlood flood-opacity="0" result="BackgroundImageFix"/>
<feColorMatrix in="SourceAlpha" type="matrix" values="0 0 0 0 0 0 0 0 0 0 0 0 0 0 0 0 0 0 127 0" result="hardAlpha"/>
<feOffset dy="13"/>
<feGaussianBlur stdDeviation="9"/>
<feColorMatrix type="matrix" values="0 0 0 0 0.0658854 0 0 0 0 0.0730469 0 0 0 0 0.1375 0 0 0 0.08 0"/>
<feBlend mode="normal" in2="BackgroundImageFix" result="effect1_dropShadow_9_181"/>
<feBlend mode="normal" in="SourceGraphic" in2="effect1_dropShadow_9_181" result="shape"/>
</filter>
</defs>
</svg>
