<svg width="81" height="81" viewBox="0 0 81 81" fill="none" xmlns="http://www.w3.org/2000/svg">
<g filter="url(#filter0_d_102_13)">
<circle cx="40.5" cy="27.5001" r="22.5" fill="white"/>
</g>
<path d="M51.1155 23.9956C51.9749 23.3511 52.7484 22.5776 53.3499 21.6753C52.5765 22.019 51.6741 22.2769 50.7718 22.3628C51.7171 21.8042 52.4046 20.9448 52.7484 19.8706C51.889 20.3862 50.9007 20.7729 49.9124 20.9878C49.053 20.0854 47.8929 19.5698 46.6038 19.5698C44.1116 19.5698 42.0921 21.5894 42.0921 24.0815C42.0921 24.4253 42.1351 24.769 42.221 25.1128C38.4827 24.8979 35.1312 23.0933 32.8968 20.3862C32.5101 21.0308 32.2952 21.8042 32.2952 22.6636C32.2952 24.2104 33.0687 25.5854 34.3148 26.4019C33.5843 26.3589 32.8538 26.187 32.2523 25.8433V25.8862C32.2523 28.0776 33.7991 29.8823 35.8616 30.312C35.5179 30.3979 35.0882 30.4839 34.7015 30.4839C34.4007 30.4839 34.1429 30.4409 33.8421 30.3979C34.4007 32.2026 36.0765 33.4917 38.053 33.5347C36.5062 34.7378 34.5726 35.4683 32.4671 35.4683C32.0804 35.4683 31.7366 35.4253 31.3929 35.3823C33.3694 36.6714 35.7327 37.4019 38.3109 37.4019C46.6038 37.4019 51.1155 30.5698 51.1155 24.5972C51.1155 24.3823 51.1155 24.2104 51.1155 23.9956Z" fill="#56D7AF"/>
<defs>
<filter id="filter0_d_102_13" x="0" y="0.00012207" width="81" height="81" filterUnits="userSpaceOnUse" color-interpolation-filters="sRGB">
<feFlood flood-opacity="0" result="BackgroundImageFix"/>
<feColorMatrix in="SourceAlpha" type="matrix" values="0 0 0 0 0 0 0 0 0 0 0 0 0 0 0 0 0 0 127 0" result="hardAlpha"/>
<feOffset dy="13"/>
<feGaussianBlur stdDeviation="9"/>
<feColorMatrix type="matrix" values="0 0 0 0 0.0658854 0 0 0 0 0.0730469 0 0 0 0 0.1375 0 0 0 0.08 0"/>
<feBlend mode="normal" in2="BackgroundImageFix" result="effect1_dropShadow_102_13"/>
<feBlend mode="normal" in="SourceGraphic" in2="effect1_dropShadow_102_13" result="shape"/>
</filter>
</defs>
</svg>
